<?xml version="1.0" standalone="no"?>
<!DOCTYPE svg PUBLIC "-//W3C//DTD SVG 20010904//EN"
 "http://www.w3.org/TR/2001/REC-SVG-20010904/DTD/svg10.dtd">
<svg version="1.0" xmlns="http://www.w3.org/2000/svg"
 width="2098.000000pt" height="1511.000000pt" viewBox="0 0 2098.000000 1511.000000"
 preserveAspectRatio="xMidYMid meet">

<g transform="translate(0.000000,1511.000000) scale(0.100000,-0.100000)"
fill="#000000" stroke="none">
<path d="M7007 13796 c-9 -19 -260 -578 -558 -1242 l-541 -1208 22 -41 c12
-22 733 -1397 1604 -3055 l1582 -3015 1061 -3 1062 -2 -108 222 c-338 696
-4094 8364 -4100 8371 -4 4 -15 -8 -24 -27z"/>
<path d="M9872 13408 c41 -54 3464 -4831 3478 -4854 11 -18 11 -249 -3 -1370
-10 -742 -20 -1485 -23 -1651 l-7 -303 1197 0 1196 0 0 1600 0 1599 -1782
2505 -1783 2505 -1149 1 -1148 0 24 -32z"/>
<path d="M15295 13407 c371 -299 689 -686 886 -1078 192 -383 282 -742 283
-1131 1 -140 4 -184 12 -175 7 7 431 518 944 1137 513 619 962 1160 997 1203
l65 77 -1614 0 -1613 -1 40 -32z"/>
<path d="M4790 7288 c-114 -315 -385 -733 -741 -1148 -155 -180 -517 -546
-703 -711 l-129 -114 877 -3 c482 -1 1270 -1 1751 0 l875 3 -116 83 c-399 288
-785 660 -1188 1147 -172 208 -478 623 -565 768 -12 20 -26 37 -30 37 -5 0
-19 -28 -31 -62z"/>
<path d="M2550 3351 l0 -761 100 0 100 0 0 515 c0 286 4 515 9 515 5 0 252
-247 550 -549 l541 -549 0 769 0 769 -100 0 -100 0 0 -526 c0 -289 -4 -524 -9
-522 -4 2 -248 248 -541 548 -292 300 -536 547 -541 548 -5 2 -9 -308 -9 -757z"/>
<path d="M4825 4096 c-173 -35 -290 -99 -421 -230 -76 -77 -98 -107 -138 -186
-65 -134 -80 -200 -80 -350 0 -99 4 -141 22 -203 63 -221 224 -413 425 -507
119 -56 205 -73 382 -74 228 -1 334 25 476 120 200 132 319 355 319 597 l0 67
-315 0 -315 0 0 -100 0 -100 201 0 200 0 -6 -22 c-18 -59 -72 -152 -115 -197
-60 -63 -112 -95 -207 -128 -70 -24 -92 -27 -223 -27 -125 -1 -155 2 -220 22
-143 45 -237 115 -319 238 -68 101 -93 183 -93 304 -1 165 50 290 166 406 230
229 623 232 902 6 l62 -50 72 73 c85 86 87 75 -33 166 -166 125 -319 177 -542
184 -87 3 -153 0 -200 -9z"/>
<path d="M15501 4100 c-66 -14 -160 -62 -212 -108 -25 -22 -61 -69 -80 -104
-32 -59 -34 -69 -34 -158 0 -83 3 -102 27 -150 62 -125 144 -189 355 -281 75
-32 158 -73 184 -90 184 -118 189 -340 9 -435 -55 -29 -199 -26 -265 6 -63 31
-125 92 -166 165 -18 32 -37 54 -44 51 -6 -2 -50 -14 -96 -27 -46 -12 -86 -23
-88 -25 -8 -7 60 -134 102 -189 110 -146 294 -227 482 -212 139 10 269 86 344
198 52 77 71 143 71 239 0 224 -118 364 -420 500 -230 103 -290 154 -290 245
0 109 118 183 274 173 81 -6 129 -26 197 -86 l45 -41 83 66 82 66 -40 41 c-92
94 -239 155 -386 161 -49 2 -110 0 -134 -5z"/>
<path d="M1562 4059 c-10 -24 -164 -362 -340 -750 -177 -388 -322 -709 -322
-712 0 -4 46 -7 103 -7 l102 0 82 183 82 182 318 3 318 2 84 -185 85 -185 103
0 c57 0 103 2 103 5 0 9 -682 1490 -690 1499 -5 4 -17 -11 -28 -35z m148 -677
c62 -134 110 -245 108 -248 -3 -2 -109 -3 -236 -2 l-231 3 117 257 c65 145
119 252 123 245 4 -6 57 -121 119 -255z"/>
<path d="M18722 4059 c-10 -24 -164 -362 -340 -750 -177 -388 -322 -709 -322
-712 0 -4 46 -7 103 -7 l102 0 82 183 82 182 318 3 318 2 84 -185 85 -185 103
0 c57 0 103 2 103 5 0 9 -682 1490 -690 1499 -5 4 -17 -11 -28 -35z m148 -677
c62 -134 110 -245 108 -248 -3 -2 -109 -3 -236 -2 l-231 3 117 257 c65 145
119 252 123 245 4 -6 57 -121 119 -255z"/>
<path d="M6160 3325 l0 -735 105 0 105 0 0 355 0 355 282 -307 c156 -170 303
-330 328 -356 l45 -48 126 3 126 3 -280 305 c-153 168 -314 343 -357 390 l-78
86 354 338 c195 187 354 341 354 343 0 1 -62 3 -138 3 l-139 0 -309 -295 -309
-296 -3 296 -2 295 -105 0 -105 0 0 -735z"/>
<path d="M7570 3325 l0 -735 100 0 100 0 0 735 0 735 -100 0 -100 0 0 -735z"/>
<path d="M8170 3325 l0 -735 410 0 410 0 0 100 0 100 -310 0 -310 0 0 255 0
255 310 0 310 0 0 100 0 100 -310 0 -310 0 0 180 0 180 310 0 310 0 0 100 0
100 -410 0 -410 0 0 -735z"/>
<path d="M10001 4038 c7 -13 115 -193 241 -401 l228 -378 0 -334 0 -335 100 0
100 0 0 334 0 333 236 389 c130 214 239 395 241 402 4 9 -21 12 -104 12 l-110
0 -178 -295 c-98 -162 -181 -293 -184 -289 -3 3 -85 135 -182 292 l-176 287
-112 3 -112 3 12 -23z"/>
<path d="M11482 3538 c4 -574 4 -567 68 -706 102 -219 370 -333 647 -276 201
41 355 190 409 395 15 55 18 136 21 587 l4 522 -100 0 -101 0 0 -447 c0 -247
-4 -487 -10 -535 -16 -158 -75 -249 -199 -307 -50 -23 -68 -26 -166 -26 -98 0
-116 3 -165 26 -31 14 -72 41 -93 58 -44 39 -93 135 -107 210 -6 31 -10 256
-10 537 l0 484 -100 0 -101 0 3 -522z"/>
<path d="M13020 3325 l0 -737 273 5 c235 4 284 8 357 26 221 56 392 190 490
386 57 114 74 188 74 325 1 93 -4 129 -23 190 -72 234 -233 410 -438 481 -128
44 -180 51 -460 56 l-273 5 0 -737z m580 510 c184 -42 313 -156 376 -331 104
-285 -46 -582 -341 -678 -61 -19 -209 -36 -327 -36 l-88 0 0 536 0 537 153 -6
c88 -3 184 -12 227 -22z"/>
<path d="M14540 3325 l0 -735 100 0 100 0 0 735 0 735 -100 0 -100 0 0 -735z"/>
<path d="M16350 3960 l0 -100 180 0 180 0 0 -635 0 -635 100 0 100 0 0 635 0
635 175 0 175 0 0 100 0 100 -455 0 -455 0 0 -100z"/>
<path d="M17570 3325 l0 -735 100 0 100 0 0 735 0 735 -100 0 -100 0 0 -735z"/>
</g>
</svg>
